<svg height="331" viewBox="0 0 302 331" width="302" xmlns="http://www.w3.org/2000/svg" xmlns:xlink="http://www.w3.org/1999/xlink"><defs><rect id="a" height="32.110092" rx="3" width="55.045872" x="19.266055" y="22.93578"/><mask id="b" fill="#fff" height="32.110092" width="55.045872" x="0" y="0"><use xlink:href="#a"/></mask><rect id="c" height="32.110092" rx="3" width="55.045872" x="19.266055" y="22.93578"/><mask id="d" fill="#fff" height="32.110092" width="55.045872" x="0" y="0"><use xlink:href="#c"/></mask><rect id="e" height="32.110092" rx="3" width="55.045872" x="19.266055" y="22.93578"/><mask id="f" fill="#fff" height="32.110092" width="55.045872" x="0" y="0"><use xlink:href="#e"/></mask><rect id="g" height="32.110092" rx="3" width="55.045872" x="19.266055" y="22.93578"/><mask id="h" fill="#fff" height="32.110092" width="55.045872" x="0" y="0"><use xlink:href="#g"/></mask><rect id="i" height="32.110092" rx="3" width="55.045872" x="19.266055" y="22.93578"/><mask id="j" fill="#fff" height="32.110092" width="55.045872" x="0" y="0"><use xlink:href="#i"/></mask></defs><g fill="none" fill-rule="evenodd" transform="translate(2 2)"><g transform="translate(26 235)"><circle cx="45.87156" cy="45.87156" r="45.87156" stroke="#000" stroke-width="3"/><g fill="#000"><text font-family="ConcourseT4, Concourse T4" font-size="20" letter-spacing="-1.45833337"><tspan x="40.366973" y="81.385321">E</tspan></text><path d="m11.926606 58.715596h68.807339v1.834862h-68.807339z"/><path d="m11.009174 57.798165h70.642202v1.834862h-70.642202z"/><path d="m10.091743 56.880734h72.477064v1.834862h-72.477064z"/></g><use mask="url(#b)" stroke="#000" stroke-width="4" xlink:href="#a"/></g><g transform="translate(104)"><circle cx="45.87156" cy="45.87156" r="45.87156" stroke="#000" stroke-width="3"/><g fill="#000"><text font-family="ConcourseT4, Concourse T4" font-size="20" letter-spacing="-1.45833337"><tspan x="40.366973" y="81.385321">D</tspan></text><path d="m11.926606 58.715596h68.807339v1.834862h-68.807339z"/><path d="m11.009174 57.798165h70.642202v1.834862h-70.642202z"/><path d="m10.091743 56.880734h72.477064v1.834862h-72.477064z"/></g><use mask="url(#d)" stroke="#000" stroke-width="4" xlink:href="#c"/></g><g transform="translate(206 104)"><circle cx="45.87156" cy="45.87156" r="45.87156" stroke="#000" stroke-width="3"/><g fill="#000"><text font-family="ConcourseT4, Concourse T4" font-size="20" letter-spacing="-1.45833337"><tspan x="38" y="80">C</tspan></text><path d="m11.926606 58.715596h68.807339v1.834862h-68.807339z"/><path d="m11.009174 57.798165h70.642202v1.834862h-70.642202z"/><path d="m10.091743 56.880734h72.477064v1.834862h-72.477064z"/></g><use mask="url(#f)" stroke="#000" stroke-width="4" xlink:href="#e"/></g><g transform="translate(186 235)"><circle cx="45.87156" cy="45.87156" r="45.87156" stroke="#000" stroke-width="3"/><g fill="#000"><text font-family="ConcourseT4, Concourse T4" font-size="20" letter-spacing="-1.45833337"><tspan x="40.366973" y="81.385321">B</tspan></text><path d="m11.926606 58.715596h68.807339v1.834862h-68.807339z"/><path d="m11.009174 57.798165h70.642202v1.834862h-70.642202z"/><path d="m10.091743 56.880734h72.477064v1.834862h-72.477064z"/></g><use mask="url(#h)" stroke="#000" stroke-width="4" xlink:href="#g"/></g><g transform="translate(0 105)"><ellipse cx="45.87156" cy="45.87156" rx="45.87156" ry="45.87156" stroke="#000" stroke-width="3"/><g fill="#000"><text font-family="ConcourseT4, Concourse T4" font-size="20" letter-spacing="-1.45833337"><tspan x="40.366973" y="81.385321">A</tspan></text><path d="m11.926606 58.715596h68.807339v1.834862h-68.807339z"/><path d="m11.009174 57.798165h70.642202v1.834862h-70.642202z"/><path d="m10.091743 56.880734h72.477064v1.834862h-72.477064z"/></g><use mask="url(#j)" stroke="#000" stroke-width="4" xlink:href="#i"/></g><path d="m67.5 235.5-17-38" stroke="#000" stroke-linecap="square" stroke-width="3"/><path d="m235.5 234.5 10-39" stroke="#000" stroke-linecap="square" stroke-width="3"/><path d="m185.5 283.5h-66" stroke="#000" stroke-linecap="square" stroke-width="3"/><path d="m92.660551 149.87156h114.678899v3h-114.678899z" fill="#000"/><g stroke="#000" stroke-linecap="square" stroke-width="3"><path d="m104.5 245.5 107-69"/><path d="m104.5 245.5 43-151"/><path d="m209.5 239.5-62-145"/><path d="m210.5 240.5-125.5-63.5"/><path d="m71.5 111.5 39-38"/><path d="m231.5 107.5-43-34"/></g></g></svg>